<svg width="32" height="28" viewBox="0 0 32 28" fill="none" xmlns="http://www.w3.org/2000/svg">
<path d="M23.6213 15.7496V21.5389C23.6213 24.6656 21.0809 27.2061 17.9542 27.2061H17.0259C15.7801 27.2061 14.7786 26.2046 14.7786 24.9588V17.2397C14.7786 14.6504 13.7527 13.6733 12.1649 13.6733C10.3572 13.6733 8.84274 14.7725 8.84274 17.8504V21.5389C8.84274 24.6656 6.30228 27.2061 3.17557 27.2061H2.24733C1.00153 27.2061 0 26.2046 0 24.9588V8.71452C0 7.46872 1.00153 6.46719 2.24733 6.46719H6.98625C7.76793 6.46719 8.40304 7.10231 8.40304 7.88399V8.88551C10.0885 7.24887 12.3603 6.46719 14.8519 6.46719C19.7862 6.46719 23.6213 9.22749 23.6213 15.7496Z" fill="#4D3088"/>
<path d="M32 4.95265C32 2.50991 30.0214 0.799988 27.2366 0.799988C24.4519 0.799988 22.4733 2.48548 22.4733 4.95265C22.4733 7.05342 23.9145 8.59234 26.0641 8.98318C26.113 9.05647 26.1618 9.15418 26.1618 9.25189V11.1572C26.1618 11.3771 26.4305 11.4504 26.5527 11.2794L27.945 9.20303C27.9939 9.12975 28.0428 9.08089 28.0916 9.03204C30.4122 8.71448 32 7.1267 32 4.95265Z" fill="#4D3088"/>
</svg>
